<svg xmlns="http://www.w3.org/2000/svg" width="256" height="256" viewBox="0 0 256 256">
  <circle cx="128" cy="128" r="104" fill="#ffffff" />
  <g transform="translate(28 28) scale(0.78)">
    <path
      fill="#111827"
      d="M200 152a31.84 31.84 0 0 0-19.53 6.68l-23.11-18A31.65 31.65 0 0 0 160 128c0-.74 0-1.48-.08-2.21l13.23-4.41A32 32 0 1 0 168 104c0 .74 0 1.48.08 2.21l-13.23 4.41A32 32 0 0 0 128 96a32.59 32.59 0 0 0-5.27.44L115.89 81A32 32 0 1 0 96 88a32.59 32.59 0 0 0 5.27-.44l6.84 15.4a31.92 31.92 0 0 0-8.57 39.64l-25.71 22.84a32.06 32.06 0 1 0 10.63 12l25.71-22.84a31.91 31.91 0 0 0 37.36-1.24l23.11 18A31.65 31.65 0 0 0 168 184a32 32 0 1 0 32-32Zm0-64a16 16 0 1 1-16 16a16 16 0 0 1 16-16ZM80 56a16 16 0 1 1 16 16a16 16 0 0 1-16-16ZM56 208a16 16 0 1 1 16-16a16 16 0 0 1-16 16Zm56-80a16 16 0 1 1 16 16a16 16 0 0 1-16-16Zm88 72a16 16 0 1 1 16-16a16 16 0 0 1-16 16Z"
    />
  </g>
  <g transform="translate(166 166) scale(1.8)">
    <path fill="#478cbf" d="m26 22-1 4h-6l-1-4h-4l-1 4H7l-1-4-4-1v3a4 4 0 0 0 4 4h20a4 4 0 0 0 4-4v-3Z"/>
    <path fill="#478cbf" d="m31.75 10.745-2.5-4.33a.5.5 0 0 0-.683-.183l-2.793 1.612A10 10 0 0 0 24 6.838V2.5a.5.5 0 0 0-.5-.5h-5a.5.5 0 0 0-.5.5V6h-4V2.5a.5.5 0 0 0-.5-.5h-5a.5.5 0 0 0-.5.5v4.338a10 10 0 0 0-1.725.97l-2.73-1.576a.5.5 0 0 0-.683.183l-2.5 4.33a.5.5 0 0 0 .183.683L2.6 12.614A10 10 0 0 0 2 16v3l5 1 1 4h4l1-4h6l1 4h4l1-4 5-1v-3a10 10 0 0 0-.58-3.332l2.147-1.24a.5.5 0 0 0 .183-.683M9 18a3 3 0 1 1 3-3 3 3 0 0 1-3 3m9-2h-4v-2h4Zm5 2a3 3 0 1 1 3-3 3 3 0 0 1-3 3"/>
  </g>
</svg>
