<svg xmlns="http://www.w3.org/2000/svg" width="256" height="256" viewBox="0 0 256 256">
  <circle cx="128" cy="128" r="104" fill="#ffffff" />
  <g transform="translate(28 28) scale(0.78)">
    <path
      fill="#111827"
      d="M200 152a31.84 31.84 0 0 0-19.53 6.68l-23.11-18A31.65 31.65 0 0 0 160 128c0-.74 0-1.48-.08-2.21l13.23-4.41A32 32 0 1 0 168 104c0 .74 0 1.48.08 2.21l-13.23 4.41A32 32 0 0 0 128 96a32.59 32.59 0 0 0-5.27.44L115.89 81A32 32 0 1 0 96 88a32.59 32.59 0 0 0 5.27-.44l6.84 15.4a31.92 31.92 0 0 0-8.57 39.64l-25.71 22.84a32.06 32.06 0 1 0 10.63 12l25.71-22.84a31.91 31.91 0 0 0 37.36-1.24l23.11 18A31.65 31.65 0 0 0 168 184a32 32 0 1 0 32-32Zm0-64a16 16 0 1 1-16 16a16 16 0 0 1 16-16ZM80 56a16 16 0 1 1 16 16a16 16 0 0 1-16-16ZM56 208a16 16 0 1 1 16-16a16 16 0 0 1-16 16Zm56-80a16 16 0 1 1 16 16a16 16 0 0 1-16-16Zm88 72a16 16 0 1 1 16-16a16 16 0 0 1-16 16Z"
    />
  </g>
  <g transform="translate(154 152) scale(0.48)">
    <path fill="#9B4F96" d="M115.4 30.7 67.1 2.9c-.8-.5-1.9-.7-3.1-.7-1.2 0-2.3.3-3.1.7l-48 27.9c-1.7 1-2.9 3.5-2.9 5.4v55.7c0 1.1.2 2.4 1 3.5l106.8-62c-.6-1.2-1.5-2.1-2.4-2.7z"/>
    <path fill="#68217A" d="M10.7 95.3c.5.8 1.2 1.5 1.9 1.9l48.2 27.9c.8.5 1.9.7 3.1.7 1.2 0 2.3-.3 3.1-.7l48-27.9c1.7-1 2.9-3.5 2.9-5.4V36.1c0-.9-.1-1.9-.6-2.8l-106.6 62z"/>
    <path fill="#fff" d="M85.3 76.1C81.1 83.5 73.1 88.5 64 88.5c-13.5 0-24.5-11-24.5-24.5s11-24.5 24.5-24.5c9.1 0 17.1 5 21.3 12.5l13-7.5c-6.8-11.9-19.6-20-34.3-20-21.8 0-39.5 17.7-39.5 39.5s17.7 39.5 39.5 39.5c14.6 0 27.4-8 34.2-19.8l-12.9-7.6zM97 66.2l.9-4.3h-4.2v-4.7h5.1L100 51h4.9l-1.2 6.1h3.8l1.2-6.1h4.8l-1.2 6.1h2.4v4.7h-3.3l-.9 4.3h4.2v4.7h-5.1l-1.2 6h-4.9l1.2-6h-3.8l-1.2 6h-4.8l1.2-6h-2.4v-4.7H97zm4.8 0h3.8l.9-4.3h-3.8l-.9 4.3z"/>
  </g>
</svg>
